<mxfile host="app.diagrams.net" agent="Mozilla/5.0 (Windows NT 10.0; Win64; x64) AppleWebKit/537.36 (KHTML, like Gecko) Chrome/131.0.0.0 Safari/537.36" version="25.0.1">
  <diagram name="Trang-1" id="1X_QOIRiVKKUm1ULIK0p">
    <mxGraphModel dx="1050" dy="522" grid="1" gridSize="10" guides="1" tooltips="1" connect="1" arrows="1" fold="1" page="1" pageScale="1" pageWidth="827" pageHeight="1169" math="0" shadow="0">
      <root>
        <mxCell id="0" />
        <mxCell id="1" parent="0" />
        <mxCell id="QVX4r7ZXVQNd0r_uFaZm-3" value="" style="edgeStyle=orthogonalEdgeStyle;rounded=0;orthogonalLoop=1;jettySize=auto;html=1;" edge="1" parent="1" source="QVX4r7ZXVQNd0r_uFaZm-1" target="QVX4r7ZXVQNd0r_uFaZm-2">
          <mxGeometry relative="1" as="geometry" />
        </mxCell>
        <mxCell id="QVX4r7ZXVQNd0r_uFaZm-1" value="Start" style="ellipse;whiteSpace=wrap;html=1;" vertex="1" parent="1">
          <mxGeometry x="354" y="30" width="120" height="80" as="geometry" />
        </mxCell>
        <mxCell id="QVX4r7ZXVQNd0r_uFaZm-5" value="" style="edgeStyle=orthogonalEdgeStyle;rounded=0;orthogonalLoop=1;jettySize=auto;html=1;" edge="1" parent="1" source="QVX4r7ZXVQNd0r_uFaZm-2" target="QVX4r7ZXVQNd0r_uFaZm-4">
          <mxGeometry relative="1" as="geometry" />
        </mxCell>
        <mxCell id="QVX4r7ZXVQNd0r_uFaZm-2" value="int a[5] = {1,2,3,4,5}&lt;div&gt;int sum&lt;/div&gt;&lt;div&gt;int i = 0&lt;/div&gt;" style="shape=parallelogram;perimeter=parallelogramPerimeter;whiteSpace=wrap;html=1;fixedSize=1;" vertex="1" parent="1">
          <mxGeometry x="336" y="170" width="156" height="80" as="geometry" />
        </mxCell>
        <mxCell id="QVX4r7ZXVQNd0r_uFaZm-7" value="" style="edgeStyle=orthogonalEdgeStyle;rounded=0;orthogonalLoop=1;jettySize=auto;html=1;" edge="1" parent="1" source="QVX4r7ZXVQNd0r_uFaZm-4" target="QVX4r7ZXVQNd0r_uFaZm-6">
          <mxGeometry relative="1" as="geometry" />
        </mxCell>
        <mxCell id="QVX4r7ZXVQNd0r_uFaZm-8" value="Sai" style="edgeLabel;html=1;align=center;verticalAlign=middle;resizable=0;points=[];" vertex="1" connectable="0" parent="QVX4r7ZXVQNd0r_uFaZm-7">
          <mxGeometry x="-0.1067" y="3" relative="1" as="geometry">
            <mxPoint as="offset" />
          </mxGeometry>
        </mxCell>
        <mxCell id="QVX4r7ZXVQNd0r_uFaZm-10" value="" style="edgeStyle=orthogonalEdgeStyle;rounded=0;orthogonalLoop=1;jettySize=auto;html=1;" edge="1" parent="1" source="QVX4r7ZXVQNd0r_uFaZm-4" target="QVX4r7ZXVQNd0r_uFaZm-9">
          <mxGeometry relative="1" as="geometry" />
        </mxCell>
        <mxCell id="QVX4r7ZXVQNd0r_uFaZm-14" value="Đúng" style="edgeLabel;html=1;align=center;verticalAlign=middle;resizable=0;points=[];" vertex="1" connectable="0" parent="QVX4r7ZXVQNd0r_uFaZm-10">
          <mxGeometry x="-0.0933" y="3" relative="1" as="geometry">
            <mxPoint as="offset" />
          </mxGeometry>
        </mxCell>
        <mxCell id="QVX4r7ZXVQNd0r_uFaZm-4" value="i &amp;lt; sizeof(a)" style="rhombus;whiteSpace=wrap;html=1;" vertex="1" parent="1">
          <mxGeometry x="374" y="330" width="80" height="80" as="geometry" />
        </mxCell>
        <mxCell id="QVX4r7ZXVQNd0r_uFaZm-16" value="" style="edgeStyle=orthogonalEdgeStyle;rounded=0;orthogonalLoop=1;jettySize=auto;html=1;" edge="1" parent="1" source="QVX4r7ZXVQNd0r_uFaZm-6" target="QVX4r7ZXVQNd0r_uFaZm-15">
          <mxGeometry relative="1" as="geometry" />
        </mxCell>
        <mxCell id="QVX4r7ZXVQNd0r_uFaZm-6" value="sum" style="whiteSpace=wrap;html=1;" vertex="1" parent="1">
          <mxGeometry x="514" y="340" width="120" height="60" as="geometry" />
        </mxCell>
        <mxCell id="QVX4r7ZXVQNd0r_uFaZm-12" value="" style="edgeStyle=orthogonalEdgeStyle;rounded=0;orthogonalLoop=1;jettySize=auto;html=1;" edge="1" parent="1" source="QVX4r7ZXVQNd0r_uFaZm-9" target="QVX4r7ZXVQNd0r_uFaZm-11">
          <mxGeometry relative="1" as="geometry" />
        </mxCell>
        <mxCell id="QVX4r7ZXVQNd0r_uFaZm-9" value="sum += a[i]" style="whiteSpace=wrap;html=1;" vertex="1" parent="1">
          <mxGeometry x="354" y="500" width="120" height="60" as="geometry" />
        </mxCell>
        <mxCell id="QVX4r7ZXVQNd0r_uFaZm-13" style="edgeStyle=orthogonalEdgeStyle;rounded=0;orthogonalLoop=1;jettySize=auto;html=1;entryX=0;entryY=0.5;entryDx=0;entryDy=0;" edge="1" parent="1" source="QVX4r7ZXVQNd0r_uFaZm-11" target="QVX4r7ZXVQNd0r_uFaZm-4">
          <mxGeometry relative="1" as="geometry">
            <Array as="points">
              <mxPoint x="250" y="670" />
              <mxPoint x="250" y="370" />
            </Array>
          </mxGeometry>
        </mxCell>
        <mxCell id="QVX4r7ZXVQNd0r_uFaZm-11" value="i++" style="whiteSpace=wrap;html=1;" vertex="1" parent="1">
          <mxGeometry x="354" y="640" width="120" height="60" as="geometry" />
        </mxCell>
        <mxCell id="QVX4r7ZXVQNd0r_uFaZm-15" value="End" style="ellipse;whiteSpace=wrap;html=1;" vertex="1" parent="1">
          <mxGeometry x="680" y="330" width="120" height="80" as="geometry" />
        </mxCell>
      </root>
    </mxGraphModel>
  </diagram>
</mxfile>
